HIERARCHY
ROOT Hips
{
	OFFSET 0.000000 0.000000 0.000000
	CHANNELS 6 Xposition Yposition Zposition Zrotation Yrotation Xrotation 
	JOINT LeftUpLeg_virtual
	{
		OFFSET 0.000000 0.000000 0.000000
		CHANNELS 3 Zrotation Yrotation Xrotation
		JOINT LeftUpLeg
		{
			OFFSET 8.479694 -4.795517 -0.379053
			CHANNELS 3 Zrotation Yrotation Xrotation
			JOINT LeftLeg
			{
				OFFSET 0.485052 -32.551468 0.112863
				CHANNELS 3 Zrotation Yrotation Xrotation
				JOINT LeftFoot
				{
					OFFSET 0.438033 -32.635670 -3.012641
					CHANNELS 3 Zrotation Yrotation Xrotation
					JOINT LeftToeBase
					{
						OFFSET 0.970169 -13.225353 11.864223
						CHANNELS 3 Zrotation Yrotation Xrotation
						End Site
						{
							OFFSET 0.000000 0.000000 0.000000
						}
					}
				}
			}
		}
	}
	JOINT RightUpLeg_virtual
	{
		OFFSET 0.000000 0.000000 0.000000
		CHANNELS 3 Zrotation Yrotation Xrotation
		JOINT RightUpLeg
		{
			OFFSET -8.479694 -4.795517 -0.379053
			CHANNELS 3 Zrotation Yrotation Xrotation
			JOINT RightLeg
			{
				OFFSET -0.484100 -32.551483 0.112903
				CHANNELS 3 Zrotation Yrotation Xrotation
				JOINT RightFoot
				{
					OFFSET -0.438985 -32.635651 -3.012681
					CHANNELS 3 Zrotation Yrotation Xrotation
					JOINT RightToeBase
					{
						OFFSET -0.970169 -13.225354 11.864223
						CHANNELS 3 Zrotation Yrotation Xrotation
						End Site
						{
							OFFSET 0.000000 0.000000 0.000000
						}
					}
				}
			}
		}
	}
	JOINT Spine_virtual
	{
		OFFSET 0.000000 0.000000 0.000000
		CHANNELS 3 Zrotation Yrotation Xrotation
		JOINT Spine
		{
			OFFSET 0.000000 7.722015 1.166203
			CHANNELS 3 Zrotation Yrotation Xrotation
			JOINT Spine1
			{
				OFFSET 0.000000 12.024086 0.248766
				CHANNELS 3 Zrotation Yrotation Xrotation
				JOINT Spine2
				{
					OFFSET -0.000000 11.503036 -0.491240
					CHANNELS 3 Zrotation Yrotation Xrotation
					JOINT Neck_virtual
					{
						OFFSET 0.000000 0.000000 0.000000
						CHANNELS 3 Zrotation Yrotation Xrotation
						JOINT Neck
						{
							OFFSET 0.000000 18.430687 -3.123054
							CHANNELS 3 Zrotation Yrotation Xrotation
							JOINT Head
							{
								OFFSET -0.000000 9.051071 1.034021
								CHANNELS 3 Zrotation Yrotation Xrotation
								End Site
								{
									OFFSET 0.000000 0.000000 0.000000
								}
							}
						}
					}
					JOINT LeftShoulder_virtual
					{
						OFFSET 0.000000 0.000000 0.000000
						CHANNELS 3 Zrotation Yrotation Xrotation
						JOINT LeftShoulder
						{
							OFFSET 6.197824 13.665230 -4.064723
							CHANNELS 3 Zrotation Yrotation Xrotation
							JOINT LeftArm
							{
								OFFSET 7.778132 -0.187073 -1.709282
								CHANNELS 3 Zrotation Yrotation Xrotation
								JOINT LeftForeArm
								{
									OFFSET 21.954697 0.000000 -2.041093
									CHANNELS 3 Zrotation Yrotation Xrotation
									JOINT LeftHand
									{
										OFFSET 22.992908 0.000000 -0.870901
										CHANNELS 3 Zrotation Yrotation Xrotation
										End Site
										{
											OFFSET 0.000000 0.000000 0.000000
										}
									}
								}
							}
						}
					}
					JOINT RightShoulder_virtual
					{
						OFFSET 0.000000 0.000000 0.000000
						CHANNELS 3 Zrotation Yrotation Xrotation
						JOINT RightShoulder
						{
							OFFSET -6.197824 13.665230 -4.064723
							CHANNELS 3 Zrotation Yrotation Xrotation
							JOINT RightArm
							{
								OFFSET -7.778132 -0.187073 -1.709282
								CHANNELS 3 Zrotation Yrotation Xrotation
								JOINT RightForeArm
								{
									OFFSET -21.954697 0.000000 -2.041093
									CHANNELS 3 Zrotation Yrotation Xrotation
									JOINT RightHand
									{
										OFFSET -22.992908 0.000000 -0.870901
										CHANNELS 3 Zrotation Yrotation Xrotation
										End Site
										{
											OFFSET 0.000000 0.000000 0.000000
										}
									}
								}
							}
						}
					}
				}
			}
		}
	}
}
MOTION
Frames: 11
Frame Time: 0.033333
-33.943939 50.226727 7.217316 -179.875299 7.429461 179.956114 -1.898017 -6.369101 2.082307 13.009823 15.009988 -51.318333 5.529728 -3.909581 120.681082 -7.092452 -17.724474 -8.243183 0.000000 0.000000 0.000000 -5.107597 -3.166748 7.298973 -15.482048 3.618386 -77.983296 -7.299374 -0.536116 131.871145 -6.047947 16.699737 -23.076492 0.000000 0.000000 0.000000 -0.300541 0.344757 4.708156 4.808378 2.578024 11.386951 -1.413994 -1.392601 6.262486 -0.054281 0.008103 -0.000405 -1.561826 -0.783240 8.812434 11.203809 -3.513429 -14.043114 0.000000 0.000000 0.000000 1.078823 -0.294945 4.712211 -5.152729 -7.157951 7.302734 -50.644026 -13.418202 5.530522 158.214461 -87.219269 -133.150686 0.000000 0.000000 0.000000 -4.894105 1.568285 3.688868 27.821432 0.903084 11.085117 39.994422 15.024319 -9.404449 -1.823049 35.083495 -6.645439 0.000000 0.000000 0.000000 
-32.158470 49.684338 8.224148 -179.980047 7.533243 -179.910584 -1.471348 -5.804844 2.076776 13.273991 16.100796 -51.405196 7.600024 -3.670709 122.135148 -5.113276 -15.510854 -10.345973 0.000000 0.000000 0.000000 -3.948642 -3.645128 6.705410 -15.027352 3.748192 -80.548797 -9.101280 -0.340212 134.103770 -7.352095 15.820294 -22.656678 0.000000 0.000000 0.000000 0.284803 0.023007 5.257364 5.081210 2.611598 11.654239 -1.413254 -1.394982 6.172607 0.015835 -0.038928 0.009181 -1.579471 -0.870353 8.636568 11.317482 -3.679773 -15.049973 0.000000 0.000000 0.000000 1.040804 -0.241802 4.514779 -5.396950 -7.208361 7.399939 -51.225124 -14.427118 5.759839 161.373779 -87.214556 -136.302832 0.000000 0.000000 0.000000 -4.963187 1.649218 3.457528 27.813254 1.161466 11.149444 38.316040 16.920851 -10.902279 -1.475070 32.924544 -6.809561 0.000000 0.000000 0.000000 
-30.413727 49.128441 9.094572 179.973340 8.195540 179.998639 -0.556096 -6.266998 1.831831 14.965023 17.573561 -51.171928 6.059065 -3.882596 122.190103 -6.381820 -16.879047 -10.030886 0.000000 0.000000 0.000000 -3.105727 -3.654265 6.636944 -14.390326 4.215495 -83.005766 -8.935810 -0.175330 135.814541 -7.225648 17.217017 -22.589464 0.000000 0.000000 0.000000 1.107643 0.016956 6.023361 5.323664 2.759410 11.946006 -1.384772 -1.259833 6.104112 0.003348 -0.115683 0.017788 -1.518926 -0.869346 8.402185 11.357632 -3.938976 -15.983980 0.000000 0.000000 0.000000 1.097458 -0.245087 4.337495 -5.439315 -7.330804 7.410761 -51.846457 -14.966671 6.501629 162.590686 -87.150707 -137.363150 0.000000 0.000000 0.000000 -4.963493 1.592045 3.187824 27.592880 1.291591 11.034282 36.437031 18.704733 -12.560375 -0.902761 31.054340 -6.790820 0.000000 0.000000 0.000000 
-28.629114 48.574844 9.855958 179.943724 9.249789 -179.912538 0.591745 -5.956445 1.882178 16.314356 19.097335 -50.878923 6.332211 -3.977915 122.399886 -6.807168 -16.717815 -11.359907 0.000000 0.000000 0.000000 -2.148828 -3.483093 6.702743 -14.174608 4.914440 -85.594940 -6.846442 -0.709448 137.251217 -6.401754 19.722053 -22.905345 0.000000 0.000000 0.000000 2.143955 0.117336 6.755484 5.397864 2.802981 12.101446 -1.364610 -1.231727 5.948577 0.015945 0.030823 0.019940 -1.442319 -0.800251 8.179519 11.387329 -4.177168 -16.701366 0.000000 0.000000 0.000000 1.175286 -0.179732 4.056549 -5.495105 -7.271135 7.417105 -52.559897 -14.936910 7.452399 164.704070 -87.063151 -139.178259 0.000000 0.000000 0.000000 -4.955164 1.687598 2.907917 27.163980 1.466711 11.060971 34.336642 20.315289 -14.209333 -0.481018 29.456663 -6.937783 0.000000 0.000000 0.000000 
-26.826033 48.018761 10.540828 179.916171 10.324159 -179.826668 1.663827 -5.208927 2.218562 17.388277 20.595117 -50.528766 7.230376 -3.814144 122.837783 -5.575847 -15.326207 -14.734019 0.000000 0.000000 0.000000 -1.137695 -3.644268 7.081514 -13.948489 5.790383 -88.119706 -4.223967 -1.078338 138.332832 -4.898004 23.241281 -23.930929 0.000000 0.000000 0.000000 3.458524 0.313581 7.536508 5.379907 2.871066 12.290101 -1.354017 -1.204093 5.770506 0.003165 0.010543 0.035298 -1.347361 -0.758227 7.936456 11.456747 -4.438525 -17.316585 0.000000 0.000000 0.000000 1.259256 -0.121293 3.783829 -5.510000 -7.215895 7.407904 -53.395861 -14.447996 8.590141 164.319188 -87.055365 -138.400205 0.000000 0.000000 0.000000 -4.913557 1.688729 2.591125 26.605431 1.616112 11.049567 32.104867 21.644957 -15.896164 -0.043440 28.129200 -7.091882 0.000000 0.000000 0.000000 
-25.110245 47.453884 11.200097 -179.858511 11.460142 -179.712918 3.086118 -4.345169 2.812555 18.288118 21.768190 -50.168306 7.910155 -3.609265 123.173459 -4.890327 -14.520470 -18.432616 0.000000 0.000000 0.000000 -0.085113 -3.776480 7.507587 -13.187644 6.570964 -90.329566 -2.084475 -2.095079 139.460674 -4.777860 24.711268 -25.559838 0.000000 0.000000 0.000000 5.022995 -0.056906 8.343085 5.258491 3.048318 12.625681 -1.348809 -1.053946 5.611670 0.022590 0.111588 -0.002816 -1.374814 -0.772859 7.782224 11.554997 -4.646736 -17.776752 0.000000 0.000000 0.000000 1.222034 -0.081589 3.527309 -5.691998 -6.990921 7.477041 -54.353324 -13.639304 9.709485 162.033766 -87.087849 -135.666968 0.000000 0.000000 0.000000 -4.984706 1.723356 2.336127 25.935041 1.800919 10.925960 29.845038 22.653239 -17.548300 0.357862 27.015396 -7.233520 0.000000 0.000000 0.000000 
-23.491573 46.888168 11.809903 -179.898303 12.060881 -179.717017 4.412156 -4.389571 3.289125 19.277789 22.727550 -49.394415 8.232015 -3.577706 123.090732 -6.323742 -14.655831 -20.581057 0.000000 0.000000 0.000000 1.087593 -4.427258 7.923694 -12.023359 7.109209 -92.327868 -1.432912 -2.465904 140.803858 -5.522633 24.316344 -26.619872 0.000000 0.000000 0.000000 6.709853 -0.561345 9.180105 4.958076 3.075867 13.085550 -1.397305 -1.103451 5.475748 0.030823 0.032470 0.009073 -1.429506 -0.765518 7.638780 11.614085 -4.817087 -18.116822 0.000000 0.000000 0.000000 1.118092 -0.026136 3.265450 -5.929939 -6.721629 7.305860 -55.408568 -12.644433 10.664294 161.079206 -87.194530 -134.296395 0.000000 0.000000 0.000000 -5.085175 1.755200 2.039035 25.280050 1.914502 10.800945 27.660033 23.241629 -19.197816 0.721965 26.023159 -7.355058 0.000000 0.000000 0.000000 
-22.013496 46.350777 12.410003 179.965267 12.579467 -179.927250 5.485792 -4.970513 3.726791 20.207647 23.484719 -48.629086 7.955745 -3.643009 122.675197 -7.962896 -15.388023 -20.818210 0.000000 0.000000 0.000000 2.439765 -4.451640 8.343710 -10.695080 6.867344 -94.035866 -2.758098 -1.760967 142.242992 -6.546926 23.050983 -26.528093 0.000000 0.000000 0.000000 8.450558 -1.165217 10.071136 4.532861 3.137961 13.678410 -1.496291 -1.186022 5.371873 0.027419 -0.068392 -0.009538 -1.527575 -0.783827 7.518626 11.619374 -4.944087 -18.482512 0.000000 0.000000 0.000000 0.959176 -0.015430 3.069945 -6.172909 -6.496609 7.212646 -56.164506 -11.891102 11.402352 155.302396 -87.227868 -128.156547 0.000000 0.000000 0.000000 -5.214934 1.687108 1.719182 24.782684 1.894075 10.872234 25.535793 23.507588 -21.226158 1.115234 25.050294 -7.393845 0.000000 0.000000 0.000000 
-20.601278 45.883972 12.967162 179.880449 13.267108 -179.864071 6.400314 -5.854823 4.163282 20.928745 24.342663 -47.866123 6.484209 -3.253482 121.924054 -7.490074 -17.152217 -16.015175 0.000000 0.000000 0.000000 3.566354 -3.930162 8.726091 -9.349515 6.462239 -95.442536 -4.162012 -1.558924 143.351054 -7.496699 21.010104 -26.622076 0.000000 0.000000 0.000000 10.081409 -1.972171 10.808114 3.971833 3.182097 14.169056 -1.601242 -1.148953 5.194149 0.001426 0.080902 -0.007587 -1.553607 -0.750126 7.453264 11.636141 -5.062271 -18.818925 0.000000 0.000000 0.000000 0.883720 0.058348 2.852627 -6.363700 -6.236503 7.170283 -56.588886 -11.438702 12.018485 150.466718 -87.212097 -123.077441 0.000000 0.000000 0.000000 -5.322306 1.791738 1.412779 24.429582 1.901962 10.850013 23.559016 23.363866 -23.627930 1.557941 24.017804 -7.289398 0.000000 0.000000 0.000000 
-19.153330 45.517529 13.429768 179.671309 13.719684 179.877922 7.156062 -6.452936 4.760869 21.483578 24.393864 -47.248663 5.439924 -3.280493 120.843313 -9.165314 -18.494001 -13.782861 0.000000 0.000000 0.000000 4.631810 -4.257593 9.159664 -8.021473 6.637376 -96.059972 -5.380584 -1.635807 144.153929 -9.081313 18.531884 -27.316674 0.000000 0.000000 0.000000 11.559387 -2.640112 11.632690 3.364291 3.324863 14.755995 -1.649922 -1.080598 5.041172 0.057680 -0.075610 -0.016431 -1.555228 -0.720709 7.360230 11.583290 -5.063381 -19.117911 0.000000 0.000000 0.000000 0.788775 0.069494 2.610040 -6.383996 -6.146445 7.069264 -56.426935 -11.711510 12.373641 146.553347 -87.241603 -119.061727 0.000000 0.000000 0.000000 -5.431842 1.852099 1.088465 24.286747 1.694520 10.753294 21.767712 23.053888 -26.389414 2.091604 22.703494 -7.034192 0.000000 0.000000 0.000000 
-17.703104 45.259312 13.931008 179.327860 14.083065 179.728587 7.699257 -6.859606 5.415239 21.758442 23.771145 -46.858315 4.913845 -3.261929 119.629124 -10.003516 -19.082968 -14.141803 0.000000 0.000000 0.000000 5.727176 -4.037422 9.327311 -6.610815 7.086160 -96.063168 -6.151539 -1.945527 144.634351 -10.307567 16.532082 -28.480605 0.000000 0.000000 0.000000 12.775551 -2.984947 12.404482 2.636214 3.293864 15.207882 -1.650776 -1.102639 4.806036 0.043843 -0.106752 -0.003863 -1.479751 -0.599166 7.222789 11.321159 -4.986614 -19.459342 0.000000 0.000000 0.000000 0.825330 0.137452 2.445574 -6.140583 -6.300674 7.039737 -55.703420 -12.924792 12.602566 142.600334 -87.214207 -115.163246 0.000000 0.000000 0.000000 -5.427324 1.877814 0.701660 24.382157 1.542148 10.808867 20.243275 22.447121 -29.646211 2.631882 21.312994 -6.758968 0.000000 0.000000 0.000000 
